<mxfile host="app.diagrams.net" modified="2022-08-15T02:34:39.516Z" agent="5.0 (Windows)" etag="GM7g7AnyvksjXBT_xx07" version="20.2.3" type="github">
  <diagram id="C5RBs43oDa-KdzZeNtuy" name="Page-1">
    <mxGraphModel dx="1422" dy="752" grid="1" gridSize="10" guides="1" tooltips="1" connect="1" arrows="1" fold="1" page="1" pageScale="1" pageWidth="827" pageHeight="1169" math="0" shadow="0">
      <root>
        <mxCell id="WIyWlLk6GJQsqaUBKTNV-0" />
        <mxCell id="WIyWlLk6GJQsqaUBKTNV-1" parent="WIyWlLk6GJQsqaUBKTNV-0" />
        <mxCell id="tIEPM-rOy1HqG1q133Rz-0" value="&lt;div&gt;maven_dao&lt;/div&gt;" style="rounded=0;whiteSpace=wrap;html=1;" vertex="1" parent="WIyWlLk6GJQsqaUBKTNV-1">
          <mxGeometry x="260" y="280" width="120" height="30" as="geometry" />
        </mxCell>
        <mxCell id="tIEPM-rOy1HqG1q133Rz-4" value="maven_pojo" style="rounded=0;whiteSpace=wrap;html=1;" vertex="1" parent="WIyWlLk6GJQsqaUBKTNV-1">
          <mxGeometry x="90" y="280" width="120" height="30" as="geometry" />
        </mxCell>
        <mxCell id="tIEPM-rOy1HqG1q133Rz-5" value="maven_project" style="rounded=0;whiteSpace=wrap;html=1;" vertex="1" parent="WIyWlLk6GJQsqaUBKTNV-1">
          <mxGeometry x="320" y="200" width="120" height="30" as="geometry" />
        </mxCell>
        <mxCell id="tIEPM-rOy1HqG1q133Rz-6" value="maven_service" style="rounded=0;whiteSpace=wrap;html=1;" vertex="1" parent="WIyWlLk6GJQsqaUBKTNV-1">
          <mxGeometry x="414" y="280" width="120" height="30" as="geometry" />
        </mxCell>
        <mxCell id="tIEPM-rOy1HqG1q133Rz-7" value="maven_web" style="rounded=0;whiteSpace=wrap;html=1;" vertex="1" parent="WIyWlLk6GJQsqaUBKTNV-1">
          <mxGeometry x="590" y="280" width="120" height="30" as="geometry" />
        </mxCell>
      </root>
    </mxGraphModel>
  </diagram>
</mxfile>
